<svg width="32" height="32" viewBox="0 0 32 32" fill="none" xmlns="http://www.w3.org/2000/svg">
<path d="M14.3999 3.20947C13.5162 3.20947 12.7999 3.92582 12.7999 4.80947C12.7999 5.69313 13.5162 6.40947 14.3999 6.40947H17.5999C18.4836 6.40947 19.1999 5.69313 19.1999 4.80947C19.1999 3.92582 18.4836 3.20947 17.5999 3.20947H14.3999Z" fill="#6A3EA1"/>
<path fill-rule="evenodd" clip-rule="evenodd" d="M6.3999 8.00947C6.3999 6.24216 7.83259 4.80947 9.5999 4.80947C9.5999 7.46044 11.7489 9.60947 14.3999 9.60947H17.5999C20.2509 9.60947 22.3999 7.46044 22.3999 4.80947C24.1672 4.80947 25.5999 6.24216 25.5999 8.00947V25.6095C25.5999 27.3768 24.1672 28.8095 22.3999 28.8095H9.5999C7.83259 28.8095 6.3999 27.3768 6.3999 25.6095V8.00947ZM21.9313 17.1408C22.5561 16.516 22.5561 15.5029 21.9313 14.8781C21.3064 14.2533 20.2934 14.2533 19.6685 14.8781L14.3999 20.1467L12.3313 18.0781C11.7064 17.4533 10.6934 17.4533 10.0685 18.0781C9.44369 18.7029 9.44369 19.716 10.0685 20.3408L13.2685 23.5408C13.8934 24.1657 14.9064 24.1657 15.5313 23.5408L21.9313 17.1408Z" fill="#6A3EA1"/>
</svg>
