<svg width="26" height="26" viewBox="0 0 26 26" fill="none" xmlns="http://www.w3.org/2000/svg">
<path d="M14.1313 0.678102C13.5065 0.0532629 12.4934 0.0532629 11.8686 0.678102L0.66858 11.8781C0.0437414 12.5029 0.0437414 13.516 0.66858 14.1408C1.29342 14.7657 2.30648 14.7657 2.93132 14.1408L3.39995 13.6722V24.2095C3.39995 25.0931 4.1163 25.8095 4.99995 25.8095H8.19995C9.08361 25.8095 9.79995 25.0931 9.79995 24.2095V21.0095C9.79995 20.1258 10.5163 19.4095 11.4 19.4095H14.6C15.4836 19.4095 16.2 20.1258 16.2 21.0095V24.2095C16.2 25.0931 16.9163 25.8095 17.8 25.8095H20.9999C21.8836 25.8095 22.5999 25.0931 22.5999 24.2095V13.6722L23.0686 14.1408C23.6934 14.7657 24.7065 14.7657 25.3313 14.1408C25.9562 13.516 25.9562 12.5029 25.3313 11.8781L14.1313 0.678102Z" fill="#6A3EA1"/>
</svg>
